<svg xmlns="http://www.w3.org/2000/svg" viewBox="0 0 50 50" fill="#666"><path d="M25 1.969c-.5 0-1.004.129-1.45.39-.007 0-.01.004-.019.008 0 0-5.261 3.203-10.531 6.48a503.986 503.986 0 0 0-7.258 4.59 88.276 88.276 0 0 0-2.422 1.626c-.3.214-.543.39-.734.546a3.04 3.04 0 0 0-.266.243 1.261 1.261 0 0 0-.156.187c-.059.09-.176.203-.195.563-.035.625.148.656.242.804.09.149.195.282.316.438.246.304.567.668.95 1.082.136.144.34.347.492.508 0 3.074.008 7.48.011 8.847A2 2 0 0 0 3 30c0 .23.043.46.121.68C2.445 31.227 2 32.043 2 32.969c0 1.18.613 2.183 1.145 3.066a18.006 18.006 0 0 0 1.062 1.574c.188.246.48.391.79.391.308 0 .6-.14.792-.383 0 0 .531-.68 1.066-1.558C7.391 35.176 8 34.16 8 32.969c0-.926-.445-1.742-1.121-2.29A2.02 2.02 0 0 0 7 30c0-.695-.363-1.34-.953-1.703-.004-1.024-.008-3.813-.008-6.73.078.078.137.148.219.226 1.508 1.512 2.355 2.32 3.015 2.96A6.741 6.741 0 0 0 8.04 25.93c.004.535.008 1.05.008 1.508.3.355.539.765.703 1.207.61-1.211 1.39-2.16 2.379-2.582a1.02 1.02 0 0 0 .492-.176c.672-.235 5.55-1.84 13.305-1.852-1.742 1.938-5.281 4.25-10.551 4.3-.262-.07-.813-.187-1.555.071a2.529 2.529 0 0 0-1.32 1.106c-.332.566-.496 1.285-.496 2.187 0 1.88 1.184 3.465 2.84 3.985 1.011 2.859 2.261 5.73 3.937 8.004C14.094 43.102 10.043 43 7 43v-3.813C6.45 39.7 5.77 40 5 40v4c0 .285.086.559.293.75.207.195.426.262.707.25.086-.008 8.773-.477 14.297 1.309C21.66 47.348 23.227 48 25.007 48c1.786 0 3.36-.656 4.727-1.703 5.422-1.738 14.203-1.266 14.203-1.266.286.016.563-.082.77-.277.207-.195.328-.469.324-.754v-7c0-1.957-.281-4.695-1.093-7.215-.645-1.984-1.633-3.898-3.215-5.031.66-.637 1.511-1.45 3.023-2.961a114.797 114.797 0 0 0 2.777-2.867c.383-.414.704-.778.95-1.082.12-.157.226-.29.32-.438.09-.148.273-.18.238-.804-.02-.364-.136-.477-.199-.567a1.178 1.178 0 0 0-.152-.183 2.601 2.601 0 0 0-.27-.243 12.91 12.91 0 0 0-.73-.546 83.616 83.616 0 0 0-2.426-1.626A481.137 481.137 0 0 0 37 8.848c-5.27-3.277-10.531-6.48-10.531-6.48-.008-.004-.012-.008-.02-.008A2.863 2.863 0 0 0 25 1.97zm0 2.062c.14 0 .281.04.41.114.02.011 5.25 3.19 10.496 6.457a471.689 471.689 0 0 1 7.223 4.57c.984.64 1.8 1.187 2.36 1.578.054.04.07.055.116.09-.175.207-.343.406-.601.683-.73.793-1.723 1.809-2.723 2.809-1.12 1.125-1.48 1.461-2.25 2.211V19c0-.371-.199-.715-.52-.898 0 0-5.566-3.133-14.511-3.133s-14.512 3.133-14.512 3.133c-.32.183-.52.527-.52.898v3.543c-.769-.75-1.128-1.086-2.25-2.211-.679-.676-1.257-1.285-1.85-1.906a.965.965 0 0 0-.278-.285c-.184-.196-.438-.442-.598-.614-.254-.28-.422-.484-.601-.687.05-.04.066-.05.12-.09a74.58 74.58 0 0 1 2.36-1.578 440.656 440.656 0 0 1 7.223-4.57A1323.306 1323.306 0 0 1 24.59 4.145.822.822 0 0 1 25 4.03zm0 13c7.848 0 12.293 2.297 12.969 2.657v3.976C36.383 23.168 32.16 21.97 25 21.97c-7.16 0-11.383 1.199-12.969 1.695v-3.977c.676-.359 5.121-2.656 12.969-2.656zm2.41 7.07c1.262.06 2.438.145 3.512.27.476 1.461 1.437 2.68 2.297 3.602a15.762 15.762 0 0 0 1.894 1.73c.227.168.508.235.782.184 0 0 .261-.035.507.093.243.125.602.34.602 1.72 0 1.218-.805 2.1-1.707 2.206a1 1 0 0 0-.832.668c-1.02 2.957-2.32 5.906-3.914 8.035-.52.696-1.063 1.29-1.633 1.786a1.084 1.084 0 0 0-.418.343C27.445 45.547 26.297 46 25.008 46c-1.32 0-2.496-.473-3.574-1.316a.93.93 0 0 0-.266-.227 11.188 11.188 0 0 1-1.703-1.848c-1.594-2.129-2.895-5.078-3.914-8.035a.994.994 0 0 0-.832-.668c-.906-.105-1.715-.988-1.715-2.207 0-.656.121-1.012.219-1.18.101-.164.16-.19.257-.222.192-.07.504-.008.504-.008a1 1 0 0 0 .317.05c6.937-.038 11.379-3.421 13.11-6.237zm5.867.598c3.016.496 4.72 1.055 5.102 1.188.14.097.3.156.469.175 1.355.567 2.433 2.227 3.12 4.36.72 2.226 1 4.832 1 6.578v5.957c-1.257-.066-5.98-.258-10.636.598 1.625-2.254 2.848-5.067 3.84-7.871 1.652-.52 2.832-2.106 2.832-3.985 0-1.851-.785-3.031-1.688-3.496-.546-.285-.742-.18-1.082-.172-.066-.05-.738-.547-1.55-1.422a10.053 10.053 0 0 1-1.407-1.91zM5 32c.574 0 1 .434 1 .969 0 .285-.39 1.281-.855 2.047-.07.117-.07.101-.141.207-.07-.114-.074-.098-.149-.22C4.387 34.23 4 33.216 4 32.97c0-.535.426-.969 1-.969z" fill="#D13030"/></svg>