<svg xmlns="http://www.w3.org/2000/svg" viewBox="0 0 50 50" fill="#666"><path d="M24 2C11.863 2 2 11.863 2 24s9.863 22 22 22c2.059 0 4.07-.297 6-.844v-3.86c-1.496 1.446-3.191 2.372-5 2.626V36h5v-2h-5v-9h5v-2h-5v-9h9.371c.895 2.582 1.461 5.52 1.586 8.66l1.043.98.988.922.465.438h5.512a20.067 20.067 0 0 1-.735 4.48l1.618 1.516A21.874 21.874 0 0 0 46 24c0-12.137-9.863-22-22-22zm-1 2.082V12h-8.559c.375-.824.774-1.61 1.215-2.32 1.996-3.223 4.57-5.207 7.344-5.598zm2 0c3.504.484 6.578 3.484 8.578 7.918H25zm6.5 1.371A20.023 20.023 0 0 1 39.988 12h-4.27c-1.093-2.629-2.534-4.86-4.218-6.547zm-15.074.04a17.62 17.62 0 0 0-2.469 3.132A23.117 23.117 0 0 0 12.25 12H8.02a20 20 0 0 1 8.406-6.508zM6.69 14h4.829c-.88 2.727-1.399 5.773-1.489 9H4.023a19.9 19.9 0 0 1 2.668-9zm6.946 0H23v9H12.031c.098-3.273.668-6.336 1.606-9zm22.816 0h4.871a19.897 19.897 0 0 1 2.649 9h-6.004c-.094-3.23-.625-6.277-1.516-9zM4.023 25h6.008c.09 3.227.61 6.273 1.489 9H6.69a19.9 19.9 0 0 1-2.668-9zm8.008 0H23v9h-9.363c-.938-2.664-1.508-5.727-1.606-9zm21.922 0A1.003 1.003 0 0 0 33 26v19.25c0 .406.242.77.617.922a.998.998 0 0 0 1.09-.215l3.012-3.016 2.511 5.477c.23.5.825.719 1.329.488l3.859-1.765c.5-.23.719-.825.488-1.328l-2.605-5.688H48c.41 0 .781-.25.93-.633a.995.995 0 0 0-.246-1.097l-14-13.125a1.01 1.01 0 0 0-.73-.27zM35 28.309l10.469 9.816h-3.594a.999.999 0 0 0-.45.105l-.105.055a.997.997 0 0 0-.46 1.309l2.812 6.14-2.043.938-2.691-5.871a.996.996 0 0 0-1.614-.285L35 42.836zM8.02 36h4.23a23.117 23.117 0 0 0 1.707 3.375 17.62 17.62 0 0 0 2.469 3.133A20 20 0 0 1 8.02 36zm6.421 0H23v7.918c-2.773-.39-5.348-2.375-7.344-5.594-.441-.715-.84-1.5-1.215-2.324z" fill="#D13030"/></svg>