<svg xmlns="http://www.w3.org/2000/svg" viewBox="0 0 50 50" fill="#666"><path d="M14.55 6C7.638 6 2 11.555 2 18.402c0 3.524 1.45 6.633 3.836 8.868L25 46.414l19.516-19.492C46.69 24.773 48 21.703 48 18.402c0-2.054-.54-3.996-1.371-5.687l-.602-1.235L24.973 31.8 12.586 19.415a1.984 1.984 0 0 1 0-2.828 1.984 1.984 0 0 1 2.828 0l9.613 9.613L43.184 8.664l-.996-.695c-.047-.035-.126-.094-.247-.172l-.03-.024-.036-.02C40 6.716 37.848 6 35.449 6c-4.426 0-8.199 2.355-10.445 5.734C22.758 8.29 18.969 6 14.55 6zm0 2c4.243 0 7.84 2.379 9.548 5.945l.89 1.86.907-1.852C27.602 10.488 31.223 8 35.449 8c1.61 0 3.059.45 4.43 1.07L25.047 23.39l-8.219-8.218a4.013 4.013 0 0 0-5.656 0 4.013 4.013 0 0 0 0 5.656L24.953 34.61l.703-.683 19.672-18.992c.387 1.105.672 2.257.672 3.468 0 2.774-1.11 5.344-2.89 7.102l-.005.004L25 43.586 7.215 25.824l-.012-.012C5.191 23.927 4 21.387 4 18.402 4 12.652 8.703 8 14.55 8z" fill="#D13030"/></svg>