<svg xmlns="http://www.w3.org/2000/svg" viewBox="0 0 50 50" fill="#666"><path d="M25 2c-7.168 0-13 5.832-13 13 0 5.078 3.105 11.348 6.14 16.492 3.032 5.145 6.063 9.117 6.063 9.117L25 41.645l.797-1.036s3.031-3.972 6.062-9.117C34.895 26.348 38 20.078 38 15c0-7.168-5.832-13-13-13zm0 2c6.086 0 11 4.914 11 11 0 4.215-2.895 10.445-5.86 15.477-2.57 4.355-4.495 6.863-5.14 7.722-.645-.86-2.57-3.367-5.14-7.722C16.894 25.445 14 19.215 14 15c0-6.086 4.914-11 11-11zm0 6c-2.75 0-5 2.25-5 5s2.25 5 5 5 5-2.25 5-5-2.25-5-5-5zm0 2c1.668 0 3 1.332 3 3s-1.332 3-3 3-3-1.332-3-3 1.332-3 3-3zM7.297 32 1.578 48h46.844l-5.719-16h-7.652c-.39.688-.781 1.355-1.172 2h7.418l4.281 12H4.422l4.281-12h7.418a82.445 82.445 0 0 1-1.172-2z" fill="#D13030"/></svg>