<svg xmlns="http://www.w3.org/2000/svg" viewBox="0 0 50 50" fill="#666"><path d="M46.063 2.656a.984.984 0 0 0-.47.188L34.25 10.5c-.527-.434-1.105-.898-1.344-1.094l1.407-4.719c.09-.308.027-.644-.172-.898a1.005 1.005 0 0 0-.828-.383s-5.004.04-7.344 3.938c-.063.074-.117.16-.157.25-4.34.261-8.625-1.75-8.625-1.75a.999.999 0 0 0-1.438.969c.001 0 .06 1.16.626 2.375.125.269.43.511.625.78-.668.06-1.758.04-2.25.095-1.223.132-1.996.171-3.469-.282a.997.997 0 0 0-1.015.278c-.258.28-.336.68-.204 1.035.336.89 1.047 1.699 1.876 2.406-.485.086-1.458.094-1.813.188-1.09.289-1.512.492-2.625.437a1.004 1.004 0 0 0-.922.488c-.191.325-.183.727.016 1.043a4.838 4.838 0 0 0 1.593 1.594c-.398.18-.874.367-1.156.531-.476.278-.789.465-.968.532-.18.066-.215.09-.5 0a.999.999 0 0 0-1.188 1.438c.383.67.934 1.1 1.531 1.436-.304.122-.664.227-.906.344-.96.469-1.469.739-1.688.75a1.002 1.002 0 0 0-.687 1.688c.383.426.813.726 1.219.937-.227.098-.375.227-.594.313-.883.343-1.594.562-1.594.562a1 1 0 1 0 .563 1.907s.789-.223 1.75-.594c.96-.371 2.086-.864 2.937-1.532.332-.257.469-.69.344-1.093a1.39 1.39 0 0 0-.531-.688c-.188-.12-.36-.144-.5-.187a6.96 6.96 0 0 0-.563-.157c.07-.039.145-.058.219-.093.832-.407 1.922-.848 3.813-1.063a.999.999 0 0 0 .984-1 .999.999 0 0 0-.985-1s-.769-.074-1.624-.343c-.18-.055-.235-.176-.407-.25.117-.07.254-.118.375-.188.852-.496 2-1.074 4.531-1.344a1.002 1.002 0 0 0 1.047-.953 1.003 1.003 0 0 0-.953-1.047c-1.164-.242-2.11-.058-2.969-.375.29-.074.672-.078.97-.156.988-.262 2.265-.531 5.03-.531a.999.999 0 0 0 .985-1 .999.999 0 0 0-.985-1c-.773 0-1.609-.328-2.312-.875-.04-.031-.055-.063-.094-.094.574.016 1.133-.004 1.688-.063 1.293-.14 2.695-.351 5.281-.25h.031a1.002 1.002 0 0 0 1.032-.968 1.002 1.002 0 0 0-.97-1.031h-.062c-1.242 0-1.715-.657-2.093-1.47-.008-.015.007-.015 0-.03 1.992.8 5.742 2.082 10.218.906.426-.102.735-.469.766-.906a1.001 1.001 0 0 0-.64-1C29.59 6.3 30.89 5.89 31.905 5.688L30.813 9.5a1 1 0 0 0 .312 1.031s1.18.95 2.438 2c1.257 1.051 2.656 2.285 2.937 2.563.047.047.395.77.531 1.437.137.668.188 1.25.188 1.25a.98.98 0 0 0 .062.282s1.614 4.207 7.094 9.5a.906.906 0 0 0 .188.156c1.097.656 1.328 1.367 1.406 2 .074.633-.063 1.062-.063 1.062a1.006 1.006 0 0 0-.062.469v.031c-.016.121-.055.293-.094.5-.074.418-.172.973-.281 1.5-.16.782-.239 1.192-.313 1.532-.445.222-2.113.992-4.187.312-2.895-.95-3.625-3.344-3.625-3.344a.997.997 0 0 0-1.219-.656s-1.707.465-3.719.188c-2.011-.278-4.191-1.188-5.468-4.188a1 1 0 0 0-1.532-.375c-2.304 1.848-3.55 3.574-4.093 5.281-.543 1.707-.368 3.305-.063 4.719.305 1.414.719 2.695.781 3.906.063 1.211-.156 2.344-1.156 3.75a1.02 1.02 0 0 0 1.656 1.188c1.242-1.746 1.582-3.477 1.5-5.032-.082-1.554-.535-2.933-.812-4.218-.278-1.285-.395-2.442 0-3.688.328-1.031 1.21-2.215 2.625-3.531a8.762 8.762 0 0 0 6.312 4.156c1.73.239 2.961.055 3.719-.093.434.949 1.5 2.87 4.469 3.843 3.289 1.078 6.156-.625 6.156-.625.234-.136.402-.363.469-.625 0 0 .218-1.023.437-2.093.11-.536.23-1.086.313-1.532.039-.222.07-.426.093-.593.024-.168.079-.196.032-.563h-.032c.079-.29.258-.688.157-1.531-.125-1.051-.774-2.36-2.219-3.313l.031-.031c-5.183-5.004-6.558-8.598-6.593-8.688-.012-.144-.043-.609-.188-1.312a14.934 14.934 0 0 0-.188-.813L46.97 4.25a.995.995 0 0 0 .086-1.047.994.994 0 0 0-.899-.547h-.093zm-4.188 5.125-4.188 5.688a48.67 48.67 0 0 0-1.843-1.625zM34.5 19a1.5 1.5 0 1 0 0 3 1.5 1.5 0 0 0 0-3z" fill="#D13030"/></svg>