<svg xmlns="http://www.w3.org/2000/svg" viewBox="0 0 50 50" fill="#666"><path d="M14 2C8.414 2 3.687 3.656 3.687 3.656A.999.999 0 0 0 3 4.75s.586 3.734 2.469 7.5c.941 1.883 2.218 3.777 3.968 5.25 1.75 1.473 4.004 2.5 6.72 2.5 2.245 0 3.75-.406 3.75-.406a1.004 1.004 0 1 0-.532-1.938s-1.21.344-3.219.344c-2.23 0-3.98-.773-5.437-2-1.457-1.227-2.61-2.938-3.469-4.656a23.4 23.4 0 0 1-2.063-6.031C6.258 4.976 9.59 4 14 4c4.371 0 6.867 1.86 8.125 4.281 1.059 2.04 1.148 4.547.438 6.688-1.204-1.375-2.57-2.598-3.938-3.656-3.602-2.79-7.188-4.47-7.188-4.47a1.005 1.005 0 0 0-.593-.093.995.995 0 0 0-.864.848 1 1 0 0 0 .582 1.058s3.415 1.586 6.813 4.219c3.398 2.633 6.625 6.254 6.625 10V25a.668.668 0 0 0 0 .125V26H10.906A.996.996 0 0 0 10 27v6c0 .55.45 1 1 1h1.188l2.843 13.219c.102.453.504.777.969.781h18c.465-.004.867-.328.969-.781L37.812 34H39c.55 0 1-.45 1-1v-6c0-.55-.45-1-1-1H26v-.844c.004-.05.004-.105 0-.156.082-1.566.8-2.95 1.906-4.219 1.18-1.355 2.813-2.523 4.469-3.468 3.313-1.891 6.656-2.844 6.656-2.844a1.002 1.002 0 0 0-.375-1.969 1.044 1.044 0 0 0-.187.031s-3.532.996-7.094 3.031c-.7.399-1.387.86-2.063 1.344.106-.785.301-1.746.72-2.718C30.956 12.043 32.675 10 37 10s6.902.898 7.813 1.25c-.211.883-.676 2.55-1.844 4.563-1.551 2.68-4 5.187-8.125 5.187-2.414 0-4-.75-4-.75a.999.999 0 0 0-1.016.07.996.996 0 0 0 .172 1.742s2.008.938 4.844.938c4.965 0 8.093-3.164 9.843-6.188 1.75-3.023 2.282-6.03 2.282-6.03a.997.997 0 0 0-.563-1.095S42.586 8 37 8c-5.008 0-7.672 2.762-8.813 5.406-1.14 2.645-1 5.219-1 5.219v.031a15.34 15.34 0 0 0-.78.813c-.266.304-.516.636-.75.968-.34-1.28-.91-2.5-1.657-3.625 1.39-2.898 1.45-6.492-.094-9.468C22.324 4.293 18.965 2 14 2zm-2 26h26v4H12zm2.219 6H35.78l-2.593 12H16.811z" fill="#D13030"/></svg>