<svg xmlns="http://www.w3.org/2000/svg" viewBox="0 0 50 50" fill="#666"><path d="M14 2c-2.75 0-5 2.25-5 5s2.25 5 5 5 5-2.25 5-5-2.25-5-5-5zm21 0c-2.75 0-5 2.25-5 5s2.25 5 5 5 5-2.25 5-5-2.25-5-5-5zM14 4c1.668 0 3 1.332 3 3s-1.332 3-3 3-3-1.332-3-3 1.332-3 3-3zm21 0c1.668 0 3 1.332 3 3s-1.332 3-3 3-3-1.332-3-3 1.332-3 3-3zM9.5 13C6.477 13 4 15.477 4 18.5v12.313A.753.753 0 0 0 4 31a.972.972 0 0 0 .031.281C4.18 32.793 5.453 34 7 34a2.95 2.95 0 0 0 1-.188v11.532A2.664 2.664 0 0 0 10.656 48h1.688c.644 0 1.191-.3 1.656-.688.465.387 1.012.688 1.656.688h1.688A2.664 2.664 0 0 0 20 45.344v-6.532A2.95 2.95 0 0 0 21 39v6.5c0 1.367 1.133 2.5 2.5 2.5h3c1.367 0 2.5-1.133 2.5-2.5V39a2.95 2.95 0 0 0 1-.188V45c0 1.645 1.355 3 3 3 .766 0 1.469-.3 2-.781.531.48 1.234.781 2 .781 1.645 0 3-1.355 3-3v-8h2.594c.656 0 1.277-.34 1.625-.875v-.031a2.15 2.15 0 0 0 .25-1.782v-.03L44.062 33c1.012 0 1.926-.492 2.407-1.281.48-.79.554-1.774.25-2.719a5414.931 5414.931 0 0 0-4.032-12.313c-.187-.578-.539-1.433-1.28-2.218A4.672 4.672 0 0 0 38 13h-6a4.665 4.665 0 0 0-3.406 1.469 1.006 1.006 0 0 0 1.468 1.375C30.517 15.359 31.075 15 32 15h6c.922 0 1.484.363 1.938.844.453.48.761 1.113.874 1.469 0 0 3.083 9.453 4 12.28.16.493.094.86-.03 1.063-.126.203-.29.344-.72.344a.978.978 0 0 1-.906-.625c-.004-.008.004-.023 0-.031a.918.918 0 0 0-.093-.282l-2.782-8.375A.999.999 0 0 0 39.188 21a.992.992 0 0 0-.715.465.985.985 0 0 0-.098.848l2.813 8.437c.019.086.05.172.093.25l1.282 3.906v.032c.003.03-.028.046-.032.062H32v-6c0-2.2-1.8-4-4-4h-6c-2.2 0-4 1.8-4 4v16.344a.634.634 0 0 1-.656.656h-1.688a.632.632 0 0 1-.656-.656V32.656a1.004 1.004 0 0 0-1.125-1 .998.998 0 0 0-.875 1v12.688a.634.634 0 0 1-.656.656h-1.688a.632.632 0 0 1-.656-.656V21a1 1 0 0 0-1.094-1.031c-.043.008-.086.02-.125.031A1.002 1.002 0 0 0 8 21v10c0 .566-.434 1-1 1a.985.985 0 0 1-1-.938V31a.753.753 0 0 0 0-.188V18.5C6 16.562 7.559 15 9.5 15h9c.75 0 1.434.227 2 .625.29.242.688.3 1.031.152A1 1 0 0 0 21.656 14a5.5 5.5 0 0 0-3.156-1zM25 16c-2.2 0-4 1.8-4 4s1.8 4 4 4 4-1.8 4-4-1.8-4-4-4zm0 2c1.117 0 2 .883 2 2s-.883 2-2 2-2-.883-2-2 .883-2 2-2zm-3 9h6c1.117 0 2 .883 2 2v7c0 .566-.434 1-1 1h-1c-.55 0-1 .45-1 1v7.5a.49.49 0 0 1-.5.5h-3a.489.489 0 0 1-.5-.5V38c0-.55-.45-1-1-1h-1c-.566 0-1-.434-1-1v-7c0-1.117.883-2 2-2zm10 10h2v8c0 .566-.434 1-1 1-.566 0-1-.434-1-1zm4 0h2v8c0 .566-.434 1-1 1-.566 0-1-.434-1-1z" fill="#D13030"/></svg>