<svg xmlns="http://www.w3.org/2000/svg" viewBox="0 0 50 50" fill="#666"><path style="line-height:normal;text-indent:0;text-align:start;text-decoration-line:none;text-decoration-style:solid;text-decoration-color:#000;text-transform:none;block-progression:tb;isolation:auto;mix-blend-mode:normal" d="M25 1.92C12.265 1.92 1.92 12.265 1.92 25c0 12.735 10.345 23.08 23.08 23.08 12.735 0 23.08-10.345 23.08-23.08C48.08 12.265 37.735 1.92 25 1.92zm-1 2.117v9.934a40.22 40.22 0 0 1-7.26-.819 25.03 25.03 0 0 1 1.348-3.318C19.74 6.528 21.838 4.516 24 4.037zm2 0c2.163.479 4.26 2.491 5.912 5.797a24.928 24.928 0 0 1 1.352 3.33 40.536 40.536 0 0 1-7.264.807V4.037zm-6.828.703c-1.086 1.137-2.053 2.56-2.873 4.2a27.253 27.253 0 0 0-1.51 3.748c-1.963-.53-3.738-1.196-5.271-1.97 2.58-2.795 5.893-4.9 9.654-5.978zm11.656 0c3.757 1.077 7.068 3.179 9.647 5.97-1.51.789-3.284 1.462-5.258 1.993A27.269 27.269 0 0 0 33.7 8.94c-.82-1.64-1.787-3.062-2.873-4.199zm10.955 7.533c2.497 3.29 4.067 7.324 4.272 11.727h-9.041c-.073-3.357-.502-6.527-1.237-9.367 2.244-.607 4.267-1.403 6.006-2.36zm-33.578.016c1.759.934 3.784 1.72 6.022 2.326-.737 2.845-1.168 6.02-1.24 9.385H3.944c.205-4.397 1.77-8.424 4.26-11.71zm7.97 2.797c2.433.517 5.062.826 7.825.887V24h-9.014c.075-3.213.495-6.238 1.19-8.914zm17.653.014c.693 2.673 1.111 5.693 1.186 8.9H26v-8.027c2.764-.06 5.396-.36 7.828-.873zM3.945 26h9.041c.073 3.357.502 6.527 1.237 9.367-2.244.607-4.267 1.403-6.006 2.36C5.72 34.437 4.15 30.403 3.945 26zm11.041 0H24v8.027c-2.764.06-5.396.36-7.828.873-.693-2.673-1.111-5.693-1.186-8.9zM26 26h9.014c-.075 3.213-.495 6.238-1.19 8.914A42.166 42.166 0 0 0 26 34.027V26zm11.014 0h9.04c-.204 4.397-1.769 8.424-4.26 11.71-1.758-.933-3.783-1.719-6.02-2.325.736-2.845 1.167-6.02 1.24-9.385zM24 36.03v9.933c-2.163-.48-4.26-2.491-5.912-5.797a24.928 24.928 0 0 1-1.352-3.33A40.536 40.536 0 0 1 24 36.029zm2 0a40.22 40.22 0 0 1 7.26.818 24.912 24.912 0 0 1-1.348 3.318c-1.653 3.306-3.75 5.318-5.912 5.797v-9.934zm-11.217 1.267c.439 1.35.942 2.616 1.516 3.764.82 1.64 1.787 3.062 2.873 4.199-3.757-1.077-7.068-3.179-9.647-5.97 1.51-.789 3.284-1.462 5.258-1.993zm20.428.016c1.963.529 3.738 1.195 5.271 1.968-2.58 2.796-5.893 4.901-9.654 5.979 1.086-1.137 2.053-2.56 2.873-4.2a27.253 27.253 0 0 0 1.51-3.748z" font-weight="400" font-family="sans-serif" overflow="visible" fill="#D13030"/></svg>