<svg xmlns="http://www.w3.org/2000/svg" viewBox="0 0 50 50" fill="#666"><path d="M20.844-.031c-.426.066-.762.39-.844.812-1.563 7.403-4.738 12.805-7.594 17.844-2.855 5.04-5.437 9.75-5.437 15.688 0 7.726 5.078 12.816 11.843 15.25.102.039.176.12.282.156a1.02 1.02 0 0 0 .968-1.782c-1.734-1.34-4.03-4.496-4.03-7 0-2.75.554-4.472 1.343-6.406.617-1.508 1.375-3.285 2.063-5.468 2.203 2.75 2.53 6 2.53 6a1.02 1.02 0 0 0 1.938.406s3.473-7.27 3.157-15.813c5.69 6.012 7.94 11.844 7.906 16.657-.04 5.585-2.969 9.968-5.719 11.843a1.017 1.017 0 0 0-.355 1.2c.168.437.609.703 1.074.644 7.226-1.05 13.062-7.625 13.062-15.781 0-5.832-1.687-10.989-5.187-16.313-3.5-5.324-8.797-10.855-16.157-17.656a1.03 1.03 0 0 0-.75-.281h-.093zm.687 2.969c6.59 6.167 11.508 11.347 14.625 16.093 3.332 5.07 4.813 9.739 4.813 15.188 0 5.61-3.137 10.218-7.438 12.437a17.313 17.313 0 0 0 3.5-10.343c.043-5.993-2.867-13.083-10.343-20.063a1.023 1.023 0 0 0-1.688.906c.95 6.41-.66 11.371-1.813 14.344-.609-1.668-1.648-3.652-3.53-5.281a1.02 1.02 0 0 0-.977-.196 1.02 1.02 0 0 0-.68.727c-.746 3.043-1.707 5.008-2.531 7.031-.824 2.024-1.5 4.117-1.5 7.157 0 1.734.625 3.39 1.5 4.843-3.953-2.465-6.438-6.218-6.438-11.468 0-5.344 2.313-9.672 5.156-14.688 2.622-4.621 5.602-9.848 7.344-16.688z" fill="#D13030"/></svg>