<svg xmlns="http://www.w3.org/2000/svg" viewBox="0 0 50 50" fill="#666"><path d="M25 8c-3.547 0-5.871.238-7.344.5-1.386.246-1.988.531-2.062.563-.004.003-.125.03-.125.03-1.48.5-3.735 1.188-4.781 3.22-.254.492-.633 1.492-1.188 2.906-.426 1.086-.926 2.457-1.438 3.781H5.095c-1.485 0-2.586.496-3.25 1.25C1.18 21.004 1 21.898 1 22.594c0 .777.406 1.554 1.031 1.937.625.383 1.324.469 2.063.469H5.75c-.156.418-.688 1.813-.688 1.813L5 27v12c0 1.645 1.355 3 3 3h4c1.645 0 3-1.355 3-3v-1h20v1c0 1.645 1.355 3 3 3h4c1.645 0 3-1.355 3-3V27l-.063-.188s-.523-1.39-.687-1.812h1.656c.739 0 1.438-.086 2.063-.469.625-.383 1.031-1.16 1.031-1.937 0-.696-.18-1.59-.844-2.344-.664-.754-1.765-1.25-3.25-1.25h-2.968c-.063-.148-.126-.293-.157-.375-1.082-2.797-2.125-5.46-2.5-6.313-.957-2.175-3.418-2.843-4.75-3.218-.043-.012-.117-.051-.156-.063v.031c-.094-.039-.664-.316-2.031-.562C30.87 8.238 28.547 8 25 8zm0 2c3.453 0 5.672.262 7 .5 1.328.238 1.656.406 1.656.406l.094.031.063.032c1.218.347 3.183 1.148 3.624 2.156.29.656 1.426 3.582 2.47 6.25.25.637.667 1.676.53 2.313-.07.32-.19.55-.656.812-.465.262-1.34.5-2.781.5H13c-1.441 0-2.316-.238-2.781-.5-.465-.262-.586-.492-.656-.813-.137-.636.28-1.675.53-2.312l-.062-.031c.457-1.192.926-2.426 1.313-3.407.55-1.402 1.043-2.527 1.125-2.687.554-1.078 2.285-1.813 3.75-2.313h.062l.063-.03s.328-.169 1.656-.407c1.328-.238 3.547-.5 7-.5zM5.094 21H7.25c-.379.996-.445 1.191-.75 2H4.094c-.559 0-.907-.098-1-.156C3 22.785 3 22.875 3 22.594c0-.364.102-.758.344-1.032.242-.273.664-.562 1.75-.562zm37.593 0h2.22c1.085 0 1.507.29 1.75.563.241.273.343.667.343 1.03 0 .282 0 .192-.094.25-.093.06-.441.157-1 .157H43.47c-.32-.82-.39-.988-.782-2zm-34.25 2.594c.231.242.497.476.813.656.902.508 2.098.75 3.75.75h24c1.652 0 2.848-.242 3.75-.75.316-.18.582-.414.813-.656.585 1.539 1.402 3.695 1.437 3.781v7.781c0 .469-.39.844-.906.844H7.906C7.391 36 7 35.625 7 35.156v-7.781c.031-.086.867-2.258 1.438-3.781zM11 26c-1.645 0-3 1.355-3 3 0 .887.367 1.676.875 2.219.508.543 1.121.91 1.719 1.25.847.48 1.426.847 2.094 1.125.667.277 1.386.406 2.312.406 2.195 0 4-1.8 4-4s-1.805-4-4-4zm24 0c-2.195 0-4 1.8-4 4s1.805 4 4 4c.926 0 1.645-.129 2.313-.406.667-.278 1.246-.645 2.093-1.125.598-.34 1.211-.707 1.719-1.25A3.275 3.275 0 0 0 42 29c0-1.645-1.355-3-3-3zm-24 2h4c1.117 0 2 .883 2 2s-.883 2-2 2c-.75 0-1.121-.066-1.563-.25-.44-.184-.992-.531-1.874-1.031-.563-.317-.977-.617-1.22-.875-.241-.258-.343-.426-.343-.844 0-.563.438-1 1-1zm24 0h4c.563 0 1 .438 1 1 0 .418-.102.586-.344.844s-.656.558-1.218.875c-.883.5-1.434.847-1.876 1.031-.44.184-.812.25-1.562.25-1.117 0-2-.883-2-2s.883-2 2-2zM7 37.844c.29.093.59.156.906.156H13v1c0 .563-.438 1-1 1H8c-.563 0-1-.438-1-1zm36 0V39c0 .563-.438 1-1 1h-4c-.563 0-1-.438-1-1v-1h5.094c.316 0 .617-.063.906-.156z" fill="#D13030"/></svg>