<svg xmlns="http://www.w3.org/2000/svg" viewBox="0 0 50 50" fill="#666"><path d="M23.598 2a.998.998 0 0 0-.989.82l-.547 2.993a10.32 10.32 0 0 0-1.367.554l-2.457-1.773a.992.992 0 0 0-1.285.101l-2.137 2.102a1.002 1.002 0 0 0-.117 1.281l1.727 2.5a9.36 9.36 0 0 0-.57 1.36l-2.997.484a.995.995 0 0 0-.84.98l-.019 3a.998.998 0 0 0 .82.989l3.004.547c.149.464.336.914.555 1.355l-1.785 2.469c-.285.394-.246.941.097 1.289l2.11 2.133a.996.996 0 0 0 1.277.117l2.531-1.742a9.61 9.61 0 0 0 1.348.558l.516 3.031c.082.48.492.832.98.836L26.45 28a1 1 0 0 0 .992-.832l.512-3.027a9.407 9.407 0 0 0 1.336-.547l2.512 1.785a1 1 0 0 0 1.281-.106l2.137-2.105c.347-.344.394-.89.11-1.293l-1.782-2.5c.223-.434.41-.875.562-1.328l3.043-.516c.477-.082.828-.496.832-.984L38 13.55a.995.995 0 0 0-.832-.989l-3.016-.511a10.3 10.3 0 0 0-.547-1.352l1.774-2.504a.991.991 0 0 0-.102-1.28L33.168 4.78a1.002 1.002 0 0 0-1.29-.11l-2.475 1.76a9.736 9.736 0 0 0-1.34-.563l-.484-3.008a1.002 1.002 0 0 0-.984-.843zm.828 2.004 1.312.008.434 2.703c.062.394.355.71.738.808a7.775 7.775 0 0 1 2.106.891.993.993 0 0 0 1.097-.035l2.23-1.582.923.93-1.606 2.25c-.226.324-.246.75-.043 1.09.395.667.684 1.378.856 2.109.093.39.41.687.808.758l2.715.457-.008 1.308-2.742.461a1.01 1.01 0 0 0-.805.742 7.504 7.504 0 0 1-.879 2.086 1 1 0 0 0 .043 1.102l1.598 2.254-.926.918-2.27-1.61a.995.995 0 0 0-1.089-.043 7.678 7.678 0 0 1-2.098.856.995.995 0 0 0-.75.805l-.46 2.726-1.305-.012-.461-2.734a.995.995 0 0 0-.75-.8 7.713 7.713 0 0 1-2.098-.876.996.996 0 0 0-1.086.035l-2.277 1.57-.922-.933 1.605-2.219a1 1 0 0 0 .047-1.101 7.796 7.796 0 0 1-.863-2.113 1.008 1.008 0 0 0-.793-.75l-2.703-.489.012-1.312 2.691-.434a1 1 0 0 0 .813-.742 7.64 7.64 0 0 1 .886-2.113.995.995 0 0 0-.031-1.09l-1.55-2.25.929-.922 2.21 1.594c.321.234.75.254 1.095.054a7.636 7.636 0 0 1 2.125-.867.992.992 0 0 0 .75-.789zm.562 6.031a4.988 4.988 0 0 0-3.554 1.445c-1.961 1.938-1.977 5.13-.04 7.094 1.938 1.961 5.133 1.977 7.094.04 1.961-1.938 1.977-5.134.04-7.094a5.006 5.006 0 0 0-3.54-1.485zm-.008 1.988c.77.004 1.536.305 2.125.903a2.998 2.998 0 0 1-.023 4.261 3.003 3.003 0 0 1-4.266-.019 3.003 3.003 0 0 1 .024-4.266 3.012 3.012 0 0 1 2.14-.879zM14.422 28c-2.61 0-3.813.625-5.11 1.125v.004c-2.488.969-6.746 2.976-6.746 2.976-.5.235-.714.833-.48 1.333.238.5.836.714 1.336.48 0 0 4.285-2.02 6.613-2.926 1.438-.558 2.063-.992 4.387-.992 5.129 0 4.922 2.227 7.086 3.5.031.02.066.04.101.05C24.293 34.755 27.176 35 29.5 35c1.027 0 1.676.238 2.027.504.348.27.473.547.473.996 0 .527-.133.777-.48 1.031-.344.25-1.008.469-2.02.469h-5.25c-2.203 0-5.996-.969-5.996-.969a1.002 1.002 0 1 0-.508 1.938S21.508 40 24.25 40h5.25c1.02 0 1.906-.168 2.648-.535a.879.879 0 0 0 .274-.13l9.484-6.222c1.426-.824 2.399-1.054 2.969-1.047.57.012.766.184.938.403.253.328.269.453.105.832-.168.383-.656.972-1.535 1.582h-.004c-1.086.758-13.23 8.672-14.633 9.469-1.058.601-1.898 1.234-2.855 1.503-.957.266-2.086.266-3.953-.625-1.247-.597-6.551-3.316-8.27-4.187-.957-.484-1.773-.758-2.605-.711-.836.047-1.543.402-2.274.863a.008.008 0 0 0-.008.008l-2.476 1.582a1.004 1.004 0 0 0-.485.895.998.998 0 0 0 1.563.79l2.465-1.58c.636-.398.996-.542 1.324-.562.328-.02.777.086 1.594.5 1.703.863 6.925 3.543 8.312 4.203 2.176 1.043 3.938 1.14 5.348.75 1.41-.394 2.414-1.183 3.308-1.691 1.93-1.098 13.395-8.598 14.79-9.567 1.058-.738 1.835-1.507 2.23-2.43a2.867 2.867 0 0 0-.363-2.85v-.005c-.496-.633-1.375-1.148-2.48-1.172-.63-.011-1.329.133-2.106.418a3.202 3.202 0 0 0-.664-.66c-.582-.433-1.508-.824-2.766-.824-.645 0-1.172.148-1.594.324-.601-.574-1.668-1.304-3.218-1.304-1.258 0-2.438.421-3.258.906-.153.09-.52.32-1.145.71-.625.391-1.441.895-2.246 1.4-1.285.8-2.082 1.3-2.543 1.589-.98-.195-1.96-.473-2.887-.879-.789-.508-2.308-3.746-8.062-3.746zm20.14 2.02c.633 0 1.086.16 1.407.347l-4.625 2.867A6.763 6.763 0 0 0 29.5 33c-.29 0-.605-.02-.906-.031l.379-.235c.804-.504 1.617-1.011 2.246-1.402.625-.387 1.136-.703 1.101-.684.473-.28 1.5-.628 2.242-.628zm4.813.98c.813 0 1.25.207 1.516.39a.263.263 0 0 0-.043.028l-6.91 4.531a3.263 3.263 0 0 0-.692-1.539l4.832-2.996.004-.008c.04-.02.875-.406 1.293-.406z" fill="#D13030"/></svg>